<svg width="93" height="93" viewBox="0 0 93 93" fill="none" xmlns="http://www.w3.org/2000/svg">
<path d="M45.5312 73.625H44.5625C35.3917 73.625 27.6094 70.4281 21.2156 64.0344C14.8219 57.6406 11.625 49.8583 11.625 40.6875C11.625 31.5167 14.8219 23.7344 21.2156 17.3406C27.6094 10.9469 35.3917 7.75 44.5625 7.75C49.1479 7.75 53.4272 8.60508 57.4004 10.3152C61.3735 12.0254 64.861 14.3827 67.8629 17.3871C70.8647 20.3915 73.2207 23.879 74.9309 27.8496C76.641 31.8202 77.4974 36.0995 77.5 40.6875C77.5 49.3417 75.0613 57.3823 70.184 64.8094C65.3067 72.2365 59.1558 78.049 51.7313 82.2469C51.0854 82.5698 50.4396 82.748 49.7938 82.7816C49.1479 82.8152 48.5667 82.6693 48.05 82.3438C47.5333 82.0208 47.0812 81.601 46.6938 81.0844C46.3063 80.5677 46.0802 79.9542 46.0156 79.2438L45.5312 73.625ZM54.25 71.1063C58.8354 67.2313 62.5658 62.6936 65.441 57.4934C68.3163 52.2931 69.7526 46.6912 69.75 40.6875C69.75 33.6479 67.3113 27.6908 62.434 22.816C57.5567 17.9413 51.5995 15.5026 44.5625 15.5C37.5229 15.5 31.5658 17.9387 26.691 22.816C21.8162 27.6933 19.3776 33.6505 19.375 40.6875C19.375 47.7271 21.8137 53.6843 26.691 58.559C31.5683 63.4338 37.5255 65.8724 44.5625 65.875H54.25V71.1063ZM44.4656 61.9031C45.5635 61.9031 46.5 61.5156 47.275 60.7406C48.05 59.9656 48.4375 59.0292 48.4375 57.9313C48.4375 56.8333 48.05 55.8969 47.275 55.1219C46.5 54.3469 45.5635 53.9594 44.4656 53.9594C43.3677 53.9594 42.4312 54.3469 41.6562 55.1219C40.8813 55.8969 40.4937 56.8333 40.4937 57.9313C40.4937 59.0292 40.8813 59.9656 41.6562 60.7406C42.4312 61.5156 43.3677 61.9031 44.4656 61.9031ZM36.0375 32.4531C36.7479 32.776 37.4583 32.7928 38.1688 32.5035C38.8792 32.2142 39.4604 31.7453 39.9125 31.0969C40.4938 30.3219 41.1719 29.7238 41.9469 29.3027C42.7219 28.8817 43.5938 28.6724 44.5625 28.675C46.1125 28.675 47.3719 29.1103 48.3406 29.9809C49.3094 30.8515 49.7938 31.9662 49.7938 33.325C49.7938 34.1646 49.5509 35.0042 49.0653 35.8438C48.5796 36.6833 47.7245 37.7167 46.5 38.9438C44.8854 40.3646 43.6906 41.7053 42.9156 42.966C42.1406 44.2267 41.7531 45.5015 41.7531 46.7906C41.7531 47.5656 42.0282 48.2283 42.5785 48.7785C43.1287 49.3288 43.7901 49.6026 44.5625 49.6C45.3375 49.6 45.9833 49.3094 46.5 48.7281C47.0167 48.1469 47.4042 47.4688 47.6625 46.6938C47.9854 45.5958 48.5667 44.5948 49.4062 43.6906C50.2458 42.7865 51.0208 41.9792 51.7313 41.2687C53.0875 39.9125 54.1053 38.5563 54.7847 37.2C55.4642 35.8438 55.8026 34.4875 55.8 33.1313C55.8 30.1604 54.7822 27.7708 52.7465 25.9625C50.7108 24.1542 47.9828 23.25 44.5625 23.25C42.4958 23.25 40.5906 23.7512 38.8469 24.7535C37.1031 25.7558 35.6823 27.1276 34.5844 28.8687C34.1969 29.5792 34.1478 30.2728 34.4371 30.9496C34.7265 31.6265 35.2599 32.1276 36.0375 32.4531Z" fill="#555555"/>
</svg>
