<svg width="85" height="87" viewBox="0 0 85 87" fill="none" xmlns="http://www.w3.org/2000/svg">
<path d="M48.5456 12.5961C48.2173 12.2639 47.827 12.0005 47.3973 11.821C46.9676 11.6414 46.5068 11.5494 46.0417 11.5501H14.1667C13.2274 11.5501 12.3265 11.9262 11.6623 12.5957C10.9981 13.2652 10.625 14.1732 10.625 15.1201V47.2501C10.625 48.1997 10.9969 49.1064 11.6627 49.774L39.996 78.334C40.3242 78.6667 40.7143 78.9307 41.1441 79.1109C41.5738 79.291 42.0346 79.3838 42.5 79.3838C42.9654 79.3838 43.4262 79.291 43.8559 79.1109C44.2857 78.9307 44.6758 78.6667 45.004 78.334L76.879 46.204C77.2081 45.8728 77.4693 45.4794 77.6475 45.0463C77.8257 44.6132 77.9174 44.1489 77.9174 43.68C77.9174 43.2112 77.8257 42.7469 77.6475 42.3138C77.4693 41.8807 77.2081 41.4873 76.879 41.1561L48.5456 12.5961ZM42.5 70.7621L17.7083 45.7721V18.6901H44.5754L69.3671 43.68L42.5 70.7621Z" fill="#555555"/>
<path d="M30.09 36.5401C33.0338 36.5401 35.4202 34.1346 35.4202 31.1673C35.4202 28.1999 33.0338 25.7944 30.09 25.7944C27.1462 25.7944 24.7598 28.1999 24.7598 31.1673C24.7598 34.1346 27.1462 36.5401 30.09 36.5401Z" fill="#555555"/>
</svg>
