<svg width="90" height="90" viewBox="0 0 90 90" fill="none" xmlns="http://www.w3.org/2000/svg">
<path d="M24.5025 6.99755C29.9128 4.79628 35.8238 4.12355 41.5903 5.05282C47.3569 5.98208 52.7574 8.47761 57.2023 12.267C61.6472 16.0564 64.9657 20.9941 66.7955 26.541C68.6254 32.0879 68.8963 38.0309 67.5787 43.7213L86.9062 63.0451L81.6 68.3475L59.1487 45.8963L59.8162 43.7363C61.1282 39.4969 61.2575 34.9796 60.1902 30.6721C59.1229 26.3646 56.8995 22.4303 53.76 19.2938C50.8666 16.3967 47.2896 14.2756 43.3596 13.1266C39.4296 11.9776 35.2733 11.8378 31.275 12.72L47.13 28.5751L28.5675 47.1376L12.7125 31.2751C11.8307 35.2737 11.9711 39.4301 13.1208 43.3602C14.2704 47.2902 16.3922 50.867 19.29 53.7601C22.4265 56.8996 26.3607 59.1229 30.6683 60.1902C34.9758 61.2575 39.493 61.1282 43.7325 59.8163L45.8887 59.1488L68.3437 81.6038L63.0412 86.9063L43.7137 67.5825C38.0233 68.9001 32.0803 68.6292 26.5334 66.7994C20.9865 64.9695 16.0489 61.651 12.2594 57.2061C8.47004 52.7612 5.97451 47.3607 5.04525 41.5942C4.11599 35.8276 4.78871 29.9166 6.98998 24.5063L7.94248 22.1663L14.2125 22.1738L28.5675 36.5288L36.525 28.5751L22.17 14.22L22.1625 7.95005L24.5025 6.99755ZM59.0625 53.7638L77.625 72.3263L72.3225 77.6288L53.76 59.0663L59.0625 53.7638Z" fill="#555555"/>
</svg>
